/* XPM */
static char * apple_xpm[] = {
"15 15 94 2",
"  	c None",
". 	c #980088",
"+ 	c #880D03",
"@ 	c #7D0500",
"# 	c #7D0E04",
"$ 	c #6F170C",
"% 	c #951505",
"& 	c #BF0615",
"* 	c #B50310",
"= 	c #A1010B",
"- 	c #8B050A",
"; 	c #700C09",
"> 	c #741E02",
", 	c #B81010",
"' 	c #C80311",
") 	c #B80709",
"! 	c #AD0302",
"~ 	c #A00001",
"{ 	c #950607",
"] 	c #800809",
"^ 	c #7B0F00",
"/ 	c #C0070F",
"( 	c #CA030C",
"_ 	c #BF0402",
": 	c #BA0000",
"< 	c #B00000",
"[ 	c #9F0003",
"} 	c #9F0810",
"| 	c #6C0003",
"1 	c #6B6C09",
"2 	c #68680C",
"3 	c #5F3908",
"4 	c #900C04",
"5 	c #C10208",
"6 	c #CB0209",
"7 	c #CD0000",
"8 	c #CB0000",
"9 	c #BB0000",
"0 	c #A40104",
"a 	c #A30610",
"b 	c #850006",
"c 	c #79601C",
"d 	c #833410",
"e 	c #C1221D",
"f 	c #C8060C",
"g 	c #C70505",
"h 	c #D50000",
"i 	c #D70000",
"j 	c #C30100",
"k 	c #A80505",
"l 	c #9A0104",
"m 	c #900700",
"n 	c #B90911",
"o 	c #C5060B",
"p 	c #BF0803",
"q 	c #D20000",
"r 	c #D80000",
"s 	c #CA0001",
"t 	c #B60508",
"u 	c #AC0A0B",
"v 	c #870801",
"w 	c #B70812",
"x 	c #BD0408",
"y 	c #BE0A02",
"z 	c #D40304",
"A 	c #D40000",
"B 	c #D10003",
"C 	c #C90009",
"D 	c #B70B08",
"E 	c #700600",
"F 	c #C42F31",
"G 	c #B60808",
"H 	c #C20704",
"I 	c #DA0408",
"J 	c #D30005",
"K 	c #D60008",
"L 	c #D50107",
"M 	c #B50603",
"N 	c #6D1800",
"O 	c #C9342E",
"P 	c #C40808",
"Q 	c #D8020B",
"R 	c #CD0109",
"S 	c #C9060C",
"T 	c #C30502",
"U 	c #970200",
"V 	c #B8120B",
"W 	c #C60208",
"X 	c #BE0E12",
"Y 	c #9E100A",
"Z 	c #7F0200",
"` 	c #800000",
" .	c #9B0000",
"..	c #7E0001",
". . . . . . . . . . . . . . . ",
". . . . . . . . . . . . . . . ",
". . . . . . + @ # $ . . . . . ",
". . . . . % & * = - ; . . . . ",
". . . . > , ' ) ! ~ { ] . . . ",
". . . . ^ / ( _ : < [ } | . . ",
". 1 2 3 4 5 6 7 8 9 0 a b . . ",
". . c d e f g h i j k l m . . ",
". . . > n o p q r s t u v . . ",
". . . > w x y z A B C D E . . ",
". . . ^ F G H I J K L M N . . ",
". . . . ^ O P Q R S T U . . . ",
". . . . . ^ V W X Y Z . . . . ",
". . . . . . `  .... . . . . . ",
". . . . . . . . . . . . . . . "};
