/* XPM */
static char * body_vertical_xpm[] = {
"15 15 116 2",
"  	c None",
". 	c #980088",
"+ 	c #024900",
"@ 	c #037B00",
"# 	c #019A00",
"$ 	c #009900",
"% 	c #009700",
"& 	c #009800",
"* 	c #037600",
"= 	c #054601",
"- 	c #1D5000",
"; 	c #378804",
"> 	c #23A103",
", 	c #079900",
"' 	c #099800",
") 	c #28A204",
"! 	c #378304",
"~ 	c #1A4C01",
"{ 	c #2E5402",
"] 	c #77960C",
"^ 	c #76B30D",
"/ 	c #2DA204",
"( 	c #039700",
"_ 	c #029700",
": 	c #32A205",
"< 	c #7EB40E",
"[ 	c #72900C",
"} 	c #285002",
"| 	c #305503",
"1 	c #82980D",
"2 	c #81B60F",
"3 	c #2CA304",
"4 	c #32A305",
"5 	c #86B510",
"6 	c #78910C",
"7 	c #2A5003",
"8 	c #1C5101",
"9 	c #448B06",
"0 	c #39A606",
"a 	c #0D9B01",
"b 	c #0E9B01",
"c 	c #3AA606",
"d 	c #3E8505",
"e 	c #194D01",
"f 	c #034B00",
"g 	c #087D00",
"h 	c #059A00",
"i 	c #029501",
"j 	c #059900",
"k 	c #077800",
"l 	c #064801",
"m 	c #004900",
"n 	c #007B00",
"o 	c #009A00",
"p 	c #039502",
"q 	c #0F8B0A",
"r 	c #178510",
"s 	c #0D8C0A",
"t 	c #029502",
"u 	c #007600",
"v 	c #034601",
"w 	c #007C00",
"x 	c #069303",
"y 	c #1A8412",
"z 	c #337125",
"A 	c #396D29",
"B 	c #337124",
"C 	c #168510",
"D 	c #059404",
"E 	c #007700",
"F 	c #004A00",
"G 	c #0E8E0A",
"H 	c #287A1D",
"I 	c #3A6E29",
"J 	c #386E28",
"K 	c #267B1B",
"L 	c #0B9008",
"M 	c #024701",
"N 	c #126D0D",
"O 	c #2F7722",
"P 	c #396F29",
"Q 	c #386F28",
"R 	c #2D7820",
"S 	c #0D6A09",
"T 	c #014700",
"U 	c #047603",
"V 	c #1B8513",
"W 	c #327224",
"X 	c #386F27",
"Y 	c #376F27",
"Z 	c #188611",
"` 	c #037202",
" .	c #024700",
"..	c #039702",
"+.	c #118B0C",
"@.	c #28791C",
"#.	c #396E28",
"$.	c #386D28",
"%.	c #2A771E",
"&.	c #128A0D",
"*.	c #034701",
"=.	c #009B00",
"-.	c #019800",
";.	c #0B8E08",
">.	c #198411",
",.	c #1C8113",
"'.	c #1A8312",
").	c #0D8D08",
"!.	c #049302",
"~.	c #024601",
"{.	c #094C00",
"].	c #0E7F00",
"^.	c #079B00",
"/.	c #089B00",
"(.	c #0F7B00",
"_.	c #094901",
". + @ # $ % & & & % & # * = . ",
". - ; > , & & & & & ' ) ! ~ . ",
". { ] ^ / ( & $ $ _ : < [ } . ",
". | 1 2 3 _ & $ & _ 4 5 6 7 . ",
". 8 9 0 a % $ & $ % b c d e . ",
". f g h $ & & i & & & j k l . ",
". m n o o p q r s t $ o u v . ",
". m w $ x y z A B C D $ E v . ",
". F n G H I J J A I K L u M . ",
". F N O P A J J J A Q R S T . ",
". F U V W A X Y Y A W Z `  .. ",
". m n ..+.@.A #.$.%.&...E *.. ",
". m w =.-.;.>.,.'.).% =.E v . ",
". m n o o & i !.i $ $ $ u ~.. ",
". {.].^.$ & & $ $ & $ /.(._.. "};
