/* XPM */
static char * head_vertical_xpm[] = {
"15 15 41 1",
" 	c None",
".	c #980088",
"+	c #003300",
"@	c #008B00",
"#	c #009900",
"$	c #003900",
"%	c #083B03",
"&	c #005E00",
"*	c #005200",
"=	c #1D4E0D",
"-	c #007900",
";	c #8FD28F",
">	c #EFF8EF",
",	c #FFFFFF",
"'	c #0F9F0F",
")	c #0F720F",
"!	c #4FB84F",
"~	c #BFE5BF",
"{	c #7FBE7F",
"]	c #AFDFAF",
"^	c #DFE5DF",
"/	c #5F7F5F",
"(	c #3F663F",
"_	c #AFBFAF",
":	c #BFCCBF",
"<	c #AFD2AF",
"[	c #7F997F",
"}	c #DFF2DF",
"|	c #AFD8AF",
"1	c #2F912F",
"2	c #AFC5AF",
"3	c #6F926F",
"4	c #2FAC2F",
"5	c #006500",
"6	c #5FB25F",
"7	c #3F993F",
"8	c #009200",
"9	c #008500",
"0	c #005F00",
"a	c #006C00",
"b	c #008C00",
".+@##########$.",
"%&###########*=",
"+-;>,>'#'>,,>)+",
"+!,,,,~#~,,,,{+",
"+]^/(_,#,:/(_~+",
"+<[++(}#}(++(|+",
"+12++34#43++31+",
"+5'674###4674&+",
".$8#########8$.",
".+5#########5+.",
"..+9#######9+..",
"...$9#0#0#9$...",
"....$a##ba$....",
".....+++++.....",
"..............."};
