/* XPM */
static char * snake_corner_xpm[] = {
"15 15 34 1",
" 	c None",
".	c #980088",
"+	c #003300",
"@	c #366719",
"#	c #006500",
"$	c #0E5B0A",
"%	c #1C5114",
"&	c #004C00",
"*	c #356618",
"=	c #009900",
"-	c #039602",
";	c #277C1C",
">	c #397029",
",	c #208117",
"'	c #2A7A1E",
")	c #118C0C",
"!	c #2E7721",
"~	c #0A9107",
"{	c #357226",
"]	c #1C8414",
"^	c #237F19",
"/	c #079305",
"(	c #0E8E0A",
"_	c #219F04",
":	c #377106",
"<	c #278615",
"[	c #42A608",
"}	c #B1BE16",
"|	c #58780B",
"1	c #188711",
"2	c #9AB913",
"3	c #007E00",
"4	c #0B9B01",
"5	c #216C04",
"...............",
"++++++++++++@..",
"#####$%%%$##&*.",
"===-;>>>>>,-#+.",
"===,>>>>>>>'#+.",
"==)>>>>>>>!~#+.",
"=-{>]]>>>^-=#+.",
"=]>>]=/(~===#+.",
"=)>>]=======#+.",
"==,>]======_:+.",
"===!<=====[}|+.",
"===/1=====_2|+.",
"##3========45+.",
"++#=========#+.",
".+#===1'1===#+."};
