/* XPM */
static char * tail_vertical_xpm[] = {
"15 15 61 1",
" 	c None",
".	c #980088",
"+	c #004600",
"@	c #003300",
"#	c #1D480D",
"$	c #008E00",
"%	c #154509",
"&	c #1C460D",
"*	c #007F00",
"=	c #009100",
"-	c #014800",
";	c #1B460C",
">	c #007200",
",	c #009900",
"'	c #007800",
")	c #0D3C06",
"!	c #133F08",
"~	c #007C00",
"{	c #009800",
"]	c #064C03",
"^	c #265312",
"/	c #004E00",
"(	c #009400",
"_	c #009600",
":	c #004F00",
"<	c #0A4404",
"[	c #008600",
"}	c #009A00",
"|	c #009700",
"1	c #005B00",
"2	c #2D5715",
"3	c #005C00",
"4	c #009B00",
"5	c #204E0F",
"6	c #024401",
"7	c #008500",
"8	c #079405",
"9	c #1B8413",
"0	c #188611",
"a	c #007600",
"b	c #1D470D",
"c	c #1A8812",
"d	c #347325",
"e	c #387028",
"f	c #377027",
"g	c #337325",
"h	c #0B8508",
"i	c #003F00",
"j	c #265A11",
"k	c #007000",
"l	c #019B00",
"m	c #178710",
"n	c #2A791E",
"o	c #297A1D",
"p	c #0E8D0A",
"q	c #007700",
"r	c #1F4D0E",
"s	c #0C4305",
"t	c #009C00",
"u	c #008F00",
"v	c #004900",
"...............",
"...............",
".......+.......",
"......++@......",
"......#$+%.....",
"......&*=-.....",
"......;>,')....",
"......!~{{]....",
".....^/(,_:....",
".....<[}{|1....",
"....23_4}|35...",
"....67890|ab...",
"....3cdefghi...",
"...jklmnop,qr..",
"..+s>t,,,,,uv.."};
